<?xml version="1.0" encoding="utf-8"?>
<!-- Generator: Adobe Illustrator 17.0.0, SVG Export Plug-In . SVG Version: 6.00 Build 0)  -->
<!DOCTYPE svg PUBLIC "-//W3C//DTD SVG 1.1//EN" "http://www.w3.org/Graphics/SVG/1.1/DTD/svg11.dtd">
<svg version="1.1" id="Layer_1" xmlns="http://www.w3.org/2000/svg"  x="0px" y="0px"
	 width="180px" height="100px" viewBox="0 0 180 100" enable-background="new 0 0 180 100" xml:space="preserve">
<g id="OPCHFR_1_">
	<g>
		<path fill="#FFFFFF" d="M55.628,56.036c1.17,2.039,2.324,4.037,3.461,6.046c0.197,0.348,0.064,0.712-0.075,1.065
			c-3.099,7.867-7.797,14.361-15.654,18.101c-4.875,2.321-10.069,2.965-15.403,2.71c-1.32-0.063-2.629-0.316-3.949-0.403
			c-0.847-0.056-1.318-0.494-1.699-1.186c-0.817-1.484-1.675-2.946-2.508-4.421c-0.172-0.304-0.576-0.625-0.308-0.963
			c0.194-0.245,0.632-0.077,0.95,0c2.415,0.584,4.894,0.748,7.348,0.75c3.355,0.003,6.673-0.464,9.858-1.669
			c7.171-2.712,12.158-7.72,15.467-14.531c0.724-1.491,1.398-3.002,1.902-4.586C55.112,56.649,55.211,56.321,55.628,56.036z"/>
		<path fill="#FFFFFF" d="M44.032,33.868c2.27-0.836,4.343-1.596,6.414-2.364c0.442-0.164,0.847-0.164,1.266,0.091
			c7.008,4.268,12.505,9.827,14.975,17.867c1.711,5.568,1.475,11.203,0.124,16.812c-1.083,4.497-1.11,4.489-5.509,5.983
			c-0.627,0.213-1.249,0.445-1.87,0.674c-0.27,0.099-0.573,0.355-0.818,0.131c-0.318-0.29,0.021-0.613,0.126-0.9
			c1.158-3.156,2.106-6.369,2.371-9.735c0.859-10.914-3.607-19.277-12.365-25.534C47.288,35.855,45.73,34.954,44.032,33.868z"/>
		<path fill="#FFFFFF" d="M4.162,45.055c4.615,17.77,15.977,25.744,34.317,24.016c-0.991,1.452-1.963,2.616-2.641,3.931
			c-1.02,1.98-2.534,2.405-4.656,2.401c-5.232-0.009-10.264-0.757-15.037-2.967C9.99,69.587,5.737,64.858,2.736,58.891
			c-1.044-2.077-1.885-4.232-2.569-6.458c-0.274-0.891-0.251-1.562,0.358-2.327c0.96-1.208,1.777-2.53,2.665-3.796
			C3.457,45.929,3.76,45.572,4.162,45.055z"/>
		<path fill="#FFFFFF" d="M62.501,32.764c0.001,0.885,0.016,1.77-0.007,2.654c-0.008,0.307,0.179,0.73-0.19,0.892
			c-0.312,0.137-0.483-0.256-0.7-0.432c-2.145-1.744-4.337-3.415-6.788-4.722c-8.474-4.52-17.008-4.646-25.613-0.386
			c-2.759,1.366-5.206,3.185-7.564,5.14c-0.219,0.182-0.418,0.538-0.727,0.413c-0.385-0.154-0.224-0.581-0.227-0.889
			c-0.016-1.843,0.007-3.686-0.019-5.528c-0.009-0.608,0.189-1.037,0.671-1.417c5.84-4.612,12.307-7.678,19.877-7.845
			c5.358-0.118,10.314,1.438,14.972,4.016c1.904,1.054,3.703,2.262,5.421,3.603c0.649,0.507,0.971,1.019,0.907,1.851
			C62.447,30.991,62.499,31.879,62.501,32.764z"/>
		<path fill="#FFFFFF" d="M31.454,18.505c-1.25,0.755-2.258,1.349-3.252,1.966c-5.702,3.542-10.089,8.218-12.444,14.602
			c-1.916,5.193-2.064,10.502-0.881,15.874c0.452,2.052,1.048,4.061,1.786,6.029c0.07,0.187,0.254,0.416,0.022,0.599
			c-0.195,0.154-0.424,0.041-0.628-0.035c-1.934-0.714-3.864-1.44-5.804-2.138c-0.42-0.151-0.534-0.493-0.645-0.833
			c-3.065-9.33-3.3-18.483,2.122-27.105c2.99-4.755,7.129-8.401,11.986-11.224c0.374-0.218,0.737-0.333,1.151-0.18
			C26.968,16.839,29.068,17.619,31.454,18.505z"/>
		<path fill="#FFFFFF" d="M37.202,42.977c0.087,0.766-0.305,1.958,0.655,2.485c0.939,0.515,1.665-0.479,2.419-0.942
			c1.79-1.097,3.586-0.812,4.267,0.716c0.462,1.036,0.245,2.35-0.597,3.163c-0.581,0.561-1.245,1.035-1.856,1.565
			c-0.714,0.618-0.679,1.036,0.133,1.538c0.279,0.172,0.592,0.294,0.898,0.416c1.482,0.592,2.17,2.067,1.621,3.495
			c-0.517,1.345-2.186,2.129-3.558,1.611c-0.615-0.232-1.191-0.577-1.763-0.91c-1.322-0.769-2.061-0.403-2.203,1.153
			c-0.071,0.775-0.212,1.528-0.445,2.268c-0.297,0.941-0.963,1.371-1.923,1.32c-0.954-0.051-1.301-0.689-1.408-1.548
			c-0.127-1.021-0.26-2.042-0.433-3.055c-0.271-1.599-0.981-1.873-2.242-0.872c-0.651,0.517-1.333,0.914-2.197,0.893
			c-1.229-0.03-1.944-0.993-1.628-2.173c0.358-1.337,1.421-2.02,2.491-2.673c1.944-1.186,1.972-1.311,0.169-2.661
			c-0.834-0.625-1.661-1.237-1.946-2.313c-0.237-0.897,0.169-1.452,1.089-1.44c1.095,0.014,2.063,0.51,3.063,0.876
			c1.222,0.447,1.843,0.064,1.929-1.23c0.073-1.095-0.053-2.186,0.29-3.282c0.339-1.084,1.034-1.36,2.01-1.252
			c1.014,0.112,1.169,0.86,1.164,1.697C37.201,42.153,37.202,42.485,37.202,42.977z"/>
		<path fill="#FFFFFF" d="M77.757,40.026c0-2.434-0.009-4.869,0.005-7.303c0.005-0.815-0.018-1.779,0.852-2.123
			c1.065-0.421,2.286-0.484,3.318,0.069c0.853,0.457,0.716,1.476,0.719,2.311c0.018,4.279,0.009,8.557,0.009,12.836
			c0,0.627,0.016,1.255-0.01,1.881c-0.067,1.608-0.561,2.126-2.019,2.152c-2.242,0.041-2.828-0.324-2.875-2.079
			c-0.069-2.58-0.018-5.163-0.018-7.745C77.744,40.026,77.751,40.026,77.757,40.026z"/>
		<path fill="#FFFFFF" d="M82.773,55.843c1.497,0.042,2.897,0.337,4.145,1.116c0.496,0.31,1.252,0.639,0.821,1.43
			c-0.411,0.753-1.129,1.054-1.981,0.709c-0.407-0.164-0.772-0.429-1.167-0.625c-0.93-0.46-1.894-0.613-2.881-0.204
			c-0.61,0.253-1.102,0.657-1.088,1.383c0.014,0.727,0.503,1.141,1.147,1.319c0.886,0.244,1.791,0.416,2.688,0.62
			c0.466,0.106,0.943,0.181,1.396,0.33c1.334,0.441,2.394,1.16,2.548,2.715c0.167,1.677-0.278,3.162-1.824,3.956
			c-2.799,1.439-5.615,1.254-8.319-0.346c-0.461-0.273-1.047-0.657-0.706-1.308c0.346-0.661,1-1.02,1.768-0.796
			c0.522,0.152,0.998,0.465,1.491,0.712c1.231,0.616,2.482,0.645,3.735,0.092c0.604-0.267,1.079-0.7,1.066-1.412
			c-0.013-0.73-0.54-1.089-1.162-1.315c-1.083-0.394-2.236-0.437-3.354-0.658c-3.241-0.64-4.538-3.433-2.712-5.895
			C79.475,56.192,81.102,55.892,82.773,55.843z"/>
		<path fill="#FFFFFF" d="M108.942,44.757c0,1.844,0.007,3.687-0.002,5.53c-0.009,2.054-0.834,3.197-2.8,3.679
			c-2.032,0.498-4.084,0.53-6.118-0.073c-0.54-0.16-1.021-0.412-1.428-0.806c-0.33-0.319-0.455-0.698-0.216-1.094
			c0.263-0.435,0.704-0.406,1.07-0.176c0.621,0.39,1.199,0.849,1.801,1.27c1.499,1.05,3.332,0.953,4.677-0.243
			c0.96-0.853,1.279-2.209,0.781-3.318c-0.415-0.927-1.353-1.329-2.733-1.173c-5.297,0.598-7.98-3.006-6.036-8.109
			c1.022-2.685,2.865-3.681,5.646-2.999c1.194,0.293,2.37,0.324,3.595,0.209c1.479-0.14,1.757,0.199,1.761,1.662
			C108.945,40.997,108.941,42.877,108.942,44.757z M107.128,43.221c-0.076-1.085-0.219-2.139-0.72-3.105
			c-0.672-1.298-1.672-2.192-3.202-2.126c-1.617,0.07-2.771,0.932-3.332,2.461c-0.682,1.858-0.531,3.705,0.407,5.43
			c1.077,1.982,3.543,2.394,5.288,0.953C106.708,45.893,107.046,44.604,107.128,43.221z"/>
		<path fill="#FFFFFF" d="M107.978,62.666c-0.002-1.73,0.015-3.461-0.008-5.191c-0.013-1.005,0.376-1.475,1.441-1.456
			c2.429,0.044,4.859,0.026,7.289,0.007c0.808-0.006,1.394,0.175,1.378,1.135c-0.016,0.944-0.6,1.144-1.406,1.129
			c-1.288-0.023-2.578-0.031-3.865,0.001c-1.227,0.031-1.775,0.568-1.765,1.639c0.01,1.136,0.493,1.627,1.727,1.662
			c1.214,0.034,2.43,0.023,3.644,0.01c0.774-0.008,1.178,0.339,1.168,1.121c-0.01,0.768-0.403,1.135-1.177,1.128
			c-1.215-0.012-2.43-0.018-3.645,0.002c-1.269,0.02-1.637,0.351-1.729,1.627c-0.066,0.916-0.056,1.839-0.058,2.759
			c-0.003,1.107-0.748,1.2-1.582,1.194c-0.834-0.005-1.434-0.23-1.418-1.245C107.999,66.347,107.979,64.506,107.978,62.666z"/>
		<path fill="#FFFFFF" d="M119.077,43.002c-1.25,0.015-2.508-0.101-3.744,0.204c-1.706,0.422-2.362,1.962-1.485,3.501
			c1.059,1.86,3.683,2.508,5.498,1.351c0.528-0.336,1.025-0.724,1.572-1.023c0.278-0.152,0.659-0.212,0.909,0.109
			c0.224,0.288,0.054,0.585-0.124,0.809c-0.226,0.284-0.481,0.579-0.788,0.761c-2.217,1.313-4.564,1.487-6.874,0.399
			c-2.142-1.009-2.99-2.944-3.119-5.228c-0.08-1.419,0.109-2.798,0.716-4.096c1.032-2.208,3.171-3.265,6.098-3.03
			c2.391,0.192,4.185,1.637,4.808,3.905c0.116,0.421,0.159,0.869,0.184,1.307c0.039,0.681-0.318,1.027-0.998,1.03
			C120.846,43.005,119.962,43.002,119.077,43.002z M117.042,42.561c0.233,0,0.529,0.024,0.821-0.004
			c1.112-0.106,2.078-0.895,2.246-1.813c0.169-0.921-0.44-2.01-1.415-2.527c-1.136-0.603-3.101-0.411-4.082,0.398
			c-1.27,1.047-1.101,2.773,0.342,3.564C115.59,42.527,116.271,42.615,117.042,42.561z"/>
		<path fill="#FFFFFF" d="M150.487,43.005c-1.25,0.012-2.509-0.108-3.741,0.216c-1.597,0.421-2.218,1.732-1.532,3.25
			c0.883,1.954,3.648,2.798,5.474,1.662c0.563-0.35,1.094-0.752,1.666-1.085c0.292-0.17,0.67-0.207,0.926,0.067
			c0.291,0.313,0.057,0.634-0.139,0.894c-0.175,0.231-0.386,0.457-0.628,0.613c-2.145,1.375-4.443,1.553-6.758,0.596
			c-2.159-0.892-3.094-2.739-3.336-4.968c-0.137-1.258,0.004-2.507,0.392-3.713c0.851-2.648,3.146-4.028,6.256-3.791
			c2.796,0.213,4.682,1.922,5.117,4.637c0.2,1.247-0.101,1.604-1.374,1.622c-0.405,0.006-0.811,0-1.217,0
			C151.224,43.005,150.855,43.005,150.487,43.005z M148.557,42.561c0.184,0,0.48,0.024,0.771-0.004
			c1.113-0.108,2.103-0.904,2.267-1.801c0.174-0.951-0.481-2.124-1.527-2.572c-1.216-0.521-2.446-0.454-3.609,0.182
			c-0.842,0.46-1.299,1.196-1.206,2.179c0.09,0.955,0.731,1.477,1.565,1.812C147.344,42.567,147.891,42.598,148.557,42.561z"/>
		<path fill="#FFFFFF" d="M179.996,44.11c0,1.477-0.012,2.729,0.004,3.98c0.013,0.961-0.458,1.433-1.372,1.184
			c-1.635-0.445-3.183-0.294-4.748,0.306c-0.649,0.249-1.394,0.187-2.079,0.041c-1.268-0.27-2.273-0.931-2.594-2.261
			c-0.328-1.36,0.027-2.547,1.149-3.458c1.014-0.823,2.236-1.069,3.47-1.306c0.648-0.124,1.305-0.254,1.92-0.482
			c1.657-0.614,2.215-1.641,1.715-3.027c-0.511-1.417-2.056-2.166-3.501-1.659c-0.408,0.143-0.778,0.403-1.151,0.633
			c-0.281,0.174-0.519,0.418-0.807,0.576c-0.481,0.264-1.15,0.645-1.483,0.097c-0.392-0.645,0.28-1.08,0.813-1.313
			c2.303-1.005,4.656-0.972,6.979-0.1c0.883,0.332,1.302,1.136,1.494,2.055C180.148,41.022,179.912,42.684,179.996,44.11z
			 M174.005,48.612c1.697-0.009,3.146-1.036,3.616-2.566c0.545-1.772-0.678-3.348-2.513-3.185c-1.217,0.108-2.263,0.626-3.069,1.567
			c-0.671,0.784-0.949,1.664-0.499,2.654C172.017,48.132,172.868,48.611,174.005,48.612z"/>
		<path fill="#FFFFFF" d="M124.73,43.321c0-1.511-0.016-3.022,0.005-4.532c0.017-1.2,0.383-1.552,1.547-1.419
			c1.511,0.172,2.988,0.247,4.47-0.27c0.565-0.197,1.244-0.146,1.862-0.097c1.389,0.11,2.294,0.883,2.433,2.274
			c0.301,3.01,0.104,6.036,0.104,9.055c0,0.519-0.241,0.922-0.87,0.92c-0.685-0.002-0.882-0.418-0.891-1.005
			c-0.027-1.731-0.059-3.462-0.073-5.194c-0.008-0.964-0.093-1.91-0.434-2.822c-0.424-1.133-1.198-1.845-2.417-1.991
			c-1.23-0.147-2.248,0.257-2.997,1.267c-0.715,0.964-0.891,2.085-0.9,3.243c-0.013,1.584-0.002,3.169-0.003,4.753
			c0,0.258,0.013,0.517-0.011,0.773c-0.055,0.588-0.341,0.96-0.977,0.974c-0.663,0.015-0.811-0.463-0.819-0.957
			c-0.027-1.657-0.01-3.316-0.01-4.973C124.742,43.321,124.736,43.321,124.73,43.321z"/>
		<path fill="#FFFFFF" d="M95.398,44.029c0,1.326,0.02,2.652-0.009,3.977c-0.013,0.598-0.083,1.238-0.921,1.238
			c-0.848,0-0.872-0.611-0.88-1.234c-0.021-1.656-0.059-3.313-0.077-4.969c-0.011-0.963-0.097-1.911-0.435-2.822
			c-0.421-1.135-1.221-1.843-2.428-1.982c-1.219-0.14-2.25,0.26-2.99,1.283c-0.676,0.935-0.887,2.008-0.893,3.132
			c-0.009,1.768-0.006,3.536-0.001,5.304c0.002,0.691-0.129,1.291-0.987,1.284c-0.896-0.007-0.796-0.702-0.797-1.281
			c-0.007-3.094,0.016-6.188-0.015-9.281c-0.01-1.025,0.461-1.447,1.416-1.322c1.584,0.208,3.104,0.108,4.686-0.259
			c2.855-0.662,4.246,0.555,4.325,3.508C95.424,41.745,95.398,42.887,95.398,44.029z"/>
		<path fill="#FFFFFF" d="M156.295,43.121c0-1.51-0.017-3.02,0.005-4.529c0.023-1.559,0.528-2.025,2.033-1.8
			c1.2,0.179,2.384,0.445,3.611,0.263c0.441-0.066,0.82,0.099,0.942,0.57c0.107,0.414,0.042,0.825-0.33,1.094
			c-0.326,0.237-0.672,0.458-1.036,0.629c-1.778,0.836-2.508,2.246-2.455,4.179c0.044,1.617,0.033,3.242-0.066,4.856
			c-0.067,1.102-0.861,1.515-1.877,1.14c-0.682-0.252-0.793-0.826-0.799-1.43c-0.016-1.657-0.006-3.314-0.006-4.97
			C156.31,43.121,156.303,43.121,156.295,43.121z"/>
		<path fill="#FFFFFF" d="M133.359,64.74c0.04,2.888-1.736,4.703-4.641,4.741c-2.856,0.038-4.72-1.726-4.764-4.507
			c-0.044-2.775,1.695-4.732,4.247-4.781C131.471,60.13,133.318,61.758,133.359,64.74z M131.764,64.869
			c0.005-2.503-1.465-4.045-3.558-3.734c-1.496,0.222-2.597,1.53-2.691,3.195c-0.12,2.137,0.805,3.753,2.372,4.141
			C130.014,68.998,131.759,67.376,131.764,64.869z"/>
		<path fill="#FFFFFF" d="M175.714,59.973c1.093,0.027,1.934,0.1,2.694,0.538c0.227,0.131,0.462,0.314,0.374,0.602
			c-0.089,0.294-0.393,0.326-0.651,0.279c-0.396-0.072-0.787-0.178-1.172-0.299c-0.541-0.169-1.087-0.223-1.627-0.05
			c-0.551,0.176-1.009,0.494-1.086,1.122c-0.078,0.63,0.281,1.053,0.79,1.341c0.746,0.422,1.585,0.571,2.406,0.776
			c1.634,0.409,2.298,1.071,2.315,2.248c0.019,1.24-0.791,2.253-2.222,2.673c-1.541,0.452-3.065,0.279-4.536-0.314
			c-0.388-0.157-0.935-0.39-0.691-0.938c0.212-0.478,0.72-0.245,1.08-0.105c0.824,0.32,1.623,0.694,2.544,0.636
			c0.892-0.056,1.618-0.38,1.799-1.316c0.185-0.955-0.513-1.406-1.261-1.692c-0.614-0.234-1.273-0.352-1.916-0.506
			c-1.643-0.393-2.4-1.119-2.389-2.304c0.012-1.213,0.892-2.179,2.366-2.537C174.992,60.015,175.477,60.002,175.714,59.973z"/>
		<path fill="#FFFFFF" d="M154.047,64.532c-0.881,0.002-1.769-0.082-2.638,0.153c-1.275,0.345-1.71,1.436-1.01,2.56
			c0.769,1.234,2.519,1.646,3.792,0.887c0.284-0.17,0.56-0.355,0.834-0.541c0.315-0.213,0.702-0.474,0.971-0.089
			c0.266,0.38-0.143,0.67-0.407,0.909c-2.237,2.025-6.283,0.859-7.134-2.05c-0.85-2.904,0.562-5.725,3.113-6.22
			c2.474-0.48,4.516,0.735,5.015,2.983c0.258,1.163,0.079,1.395-1.098,1.407C155.004,64.536,154.525,64.532,154.047,64.532z
			 M152.548,64.234c1.029,0.009,1.778-0.316,2.088-0.936c0.297-0.594,0.146-1.145-0.241-1.639c-0.837-1.068-3.005-1.018-3.8,0.079
			c-0.523,0.721-0.367,1.594,0.381,2.108C151.45,64.171,151.987,64.252,152.548,64.234z"/>
		<path fill="#FFFFFF" d="M140.283,43.229c0,1.397,0.011,2.795-0.007,4.192c-0.006,0.437-0.045,0.884-0.147,1.308
			c-0.153,0.632-0.625,0.865-1.251,0.831c-0.593-0.032-1-0.321-1.049-0.921c-0.071-0.877-0.097-1.76-0.102-2.64
			c-0.013-2.353-0.007-4.707,0-7.06c0.001-0.366,0.017-0.738,0.085-1.095c0.13-0.675,0.566-1.001,1.256-0.977
			c0.693,0.025,1.131,0.355,1.139,1.072c0.019,1.763,0.006,3.527,0.006,5.29C140.237,43.229,140.26,43.229,140.283,43.229z"/>
		<path fill="#FFFFFF" d="M170.91,65.467c0,0.848-0.02,1.696,0.006,2.543c0.023,0.759-0.282,1.17-1.053,0.959
			c-1.118-0.306-2.161-0.119-3.245,0.202c-1.533,0.454-3.003-0.246-3.375-1.487c-0.405-1.35,0.422-2.669,2.042-3.158
			c0.769-0.232,1.585-0.307,2.352-0.544c0.703-0.217,1.443-0.516,1.567-1.377c0.109-0.752-0.22-1.39-0.856-1.796
			c-0.753-0.481-1.542-0.425-2.293,0.047c-0.433,0.272-0.785,0.683-1.315,0.785c-0.213,0.041-0.454,0.074-0.593-0.161
			c-0.143-0.242,0.016-0.448,0.171-0.584c0.217-0.19,0.471-0.359,0.739-0.462c0.375-0.145,0.77-0.262,1.167-0.321
			c3.506-0.523,4.688,0.498,4.687,4.027C170.91,64.582,170.91,65.025,170.91,65.467z M166.718,68.505
			c1.402-0.024,2.634-1.188,2.601-2.458c-0.024-0.93-0.752-1.601-1.736-1.6c-1.431,0.001-2.881,1.229-2.825,2.391
			C164.806,67.802,165.654,68.523,166.718,68.505z"/>
		<path fill="#FFFFFF" d="M134.587,65.041c0-1.141,0.028-2.284-0.01-3.424c-0.027-0.815,0.307-1.198,1.113-1.073
			c1.181,0.183,2.308,0.035,3.48-0.212c2.17-0.457,3.169,0.468,3.177,2.718c0.006,1.767,0.003,3.535,0,5.302
			c-0.001,0.485,0.034,1.025-0.66,1.049c-0.716,0.024-0.676-0.515-0.682-1.005c-0.016-1.325-0.004-2.652-0.062-3.975
			c-0.094-2.164-0.989-3.287-2.519-3.243c-1.498,0.043-2.46,1.306-2.496,3.324c-0.023,1.288-0.004,2.577-0.007,3.866
			c-0.001,0.502-0.038,1.015-0.708,1.025c-0.755,0.012-0.616-0.584-0.621-1.039C134.578,67.25,134.587,66.145,134.587,65.041z"/>
		<path fill="#FFFFFF" d="M93.958,64.73c0-1.07,0.009-2.139-0.003-3.209c-0.008-0.758,0.358-1.122,1.096-0.994
			c1.151,0.2,2.245,0.01,3.379-0.209c1.992-0.385,2.925,0.456,2.953,2.488c0.023,1.696,0.01,3.394,0.002,5.09
			c-0.002,0.479,0.038,1.045-0.66,1.052c-0.731,0.007-0.625-0.589-0.634-1.051c-0.026-1.291,0.003-2.583-0.059-3.872
			c-0.081-1.684-0.795-2.687-1.935-2.855c-1.31-0.194-2.348,0.577-2.687,2.051c-0.31,1.346-0.083,2.72-0.144,4.08
			c-0.015,0.331,0.001,0.664-0.02,0.995c-0.028,0.44-0.274,0.672-0.718,0.66c-0.442-0.011-0.55-0.342-0.555-0.686
			c-0.017-1.18-0.007-2.361-0.007-3.541C93.963,64.73,93.96,64.73,93.958,64.73z"/>
		<path fill="#FFFFFF" d="M164.638,43.205c0-1.585-0.011-3.171,0.004-4.756c0.008-0.869,0.274-1.515,1.336-1.488
			c1.04,0.026,1.172,0.714,1.176,1.507c0.013,3.097,0.02,6.194,0.015,9.291c-0.001,0.326-0.058,0.662-0.149,0.976
			c-0.181,0.619-0.633,0.869-1.265,0.825c-0.655-0.046-1.041-0.395-1.049-1.047c-0.021-1.769-0.007-3.538-0.007-5.307
			C164.678,43.205,164.658,43.205,164.638,43.205z"/>
		<path fill="#FFFFFF" d="M144.403,65.142c-0.033-1.427,0.192-2.904-1.057-4.022c-0.167-0.149-0.192-0.451-0.038-0.619
			c0.645-0.698,1.012-1.507,1.181-2.44c0.075-0.415,0.484-0.53,0.875-0.528c0.423,0.002,0.701,0.236,0.779,0.645
			c0.169,0.884,0.388,1.71,1.25,2.226c0.374,0.224,0.205,0.522-0.068,0.813c-1.737,1.85-1.65,5.254,0.162,7.11
			c0.207,0.212,0.447,0.422,0.338,0.758c-0.116,0.358-0.407,0.481-0.767,0.526c-1.397,0.175-2.482-0.615-2.638-2.038
			C144.331,66.77,144.403,65.952,144.403,65.142z"/>
		<path fill="#FFFFFF" d="M158.129,64.621c0-1.067-0.033-2.136,0.009-3.202c0.045-1.154,0.504-1.514,1.643-1.285
			c0.729,0.146,1.447,0.245,2.189,0.17c0.383-0.038,0.763-0.012,0.881,0.453c0.108,0.425-0.133,0.698-0.47,0.902
			c-0.22,0.133-0.445,0.26-0.674,0.377c-1.106,0.561-1.572,1.494-1.575,2.696c-0.003,1.031,0.013,2.061-0.006,3.092
			c-0.013,0.662,0.041,1.391-0.968,1.388c-0.986-0.003-0.983-0.737-1.008-1.389c-0.041-1.066-0.011-2.134-0.011-3.202
			C158.134,64.621,158.131,64.621,158.129,64.621z"/>
		<path fill="#FFFFFF" d="M118.79,64.575c0-1.103-0.01-2.207,0.003-3.31c0.011-0.947,0.523-1.354,1.434-1.163
			c0.834,0.175,1.663,0.286,2.515,0.199c0.321-0.033,0.583,0.064,0.701,0.398c0.13,0.368,0.009,0.734-0.307,0.853
			c-2.613,0.978-2.466,3.158-2.378,5.329c0.019,0.476-0.016,0.955-0.04,1.432c-0.027,0.549-0.26,0.907-0.873,0.905
			c-0.606-0.002-1.008-0.251-1.017-0.893c-0.019-1.25-0.005-2.5-0.005-3.749C118.812,64.575,118.801,64.575,118.79,64.575z"/>
		<path fill="#FFFFFF" d="M92.069,64.671c0,1.104,0.027,2.209-0.011,3.312c-0.021,0.608-0.158,1.2-0.984,1.185
			c-0.819-0.014-0.813-0.629-0.819-1.174c-0.026-2.207-0.037-4.415-0.022-6.623c0.004-0.608,0.116-1.212,0.963-1.179
			c0.781,0.03,0.846,0.603,0.859,1.167c0.025,1.103,0.007,2.208,0.007,3.312C92.064,64.671,92.066,64.671,92.069,64.671z"/>
		<path fill="#FFFFFF" d="M167.089,32.595c0.289,0.017,0.691,0.003,0.671,0.543c-0.022,0.61-1.347,1.824-2.005,1.83
			c-0.448,0.005-0.804-0.167-0.801-0.682C164.956,33.592,166.189,32.595,167.089,32.595z"/>
		<path fill="#FFFFFF" d="M138.706,31.934c0.714,0.027,1.243,0.065,1.271,0.693c0.027,0.627-0.493,0.76-0.983,0.76
			c-0.487,0-1.004-0.117-0.984-0.755C138.027,32.088,138.431,31.917,138.706,31.934z"/>
		<path fill="#FFFFFF" d="M91.056,56.679c0.34,0.011,0.719,0.054,0.776,0.445c0.059,0.409-0.293,0.563-0.637,0.588
			c-0.335,0.024-0.704-0.044-0.757-0.453C90.385,56.847,90.673,56.686,91.056,56.679z"/>
	</g>
</g>
</svg>
