<svg width="230" height="89" xmlns="http://www.w3.org/2000/svg">

 <g>
  <title>background</title>
  <rect fill="none" id="canvas_background" height="91" width="232" y="-1" x="-1"/>
 </g>
 <g>
  <title>Layer 1</title>
  <g stroke="null" id="OPCHFR_1_">
   <g stroke="null" id="svg_1">
    <path stroke="null" id="svg_2" d="m70.996233,52.203268c1.493209,2.602267 2.965998,5.152208 4.41709,7.716188c0.251421,0.444134 0.08168,0.908688 -0.095719,1.359203c-3.955089,10.040234 -9.950896,18.328181 -19.978368,23.101344c-6.221703,2.962169 -12.850529,3.784072 -19.65803,3.458629c-1.684646,-0.080404 -3.355253,-0.403294 -5.039899,-0.514327c-1.080981,-0.07147 -1.682093,-0.630466 -2.168343,-1.513629c-1.042694,-1.89395 -2.137713,-3.759823 -3.200827,-5.642287c-0.219514,-0.387979 -0.735118,-0.797654 -0.393084,-1.229026c0.247592,-0.31268 0.806588,-0.098271 1.212434,0c3.082136,0.745328 6.245952,0.954633 9.377862,0.957185c4.281808,0.003829 8.516395,-0.592179 12.581241,-2.130056c9.151966,-3.461181 15.516609,-9.852625 19.73971,-18.545143c0.924003,-1.902884 1.784193,-3.831293 2.427421,-5.852868c0.119967,-0.382874 0.246316,-0.801483 0.778511,-1.165213z" fill="#FFFFFF"/>
    <path stroke="null" id="svg_3" d="m56.196875,23.911428c2.89708,-1.066942 5.54274,-2.03689 8.185847,-3.017047c0.564101,-0.209304 1.080981,-0.209304 1.615728,0.116138c8.943938,5.447021 15.959467,12.541678 19.111796,22.802702c2.183658,7.106142 1.882464,14.297793 0.158255,21.456262c-1.382175,5.739282 -1.416634,5.729072 -7.030844,7.635785c-0.800207,0.271841 -1.594032,0.56793 -2.386582,0.86019c-0.344587,0.126348 -0.731289,0.453068 -1.04397,0.167188c-0.405846,-0.370112 0.026801,-0.782339 0.160807,-1.148622c1.477894,-4.027835 2.687776,-8.128416 3.025981,-12.424263c1.096296,-13.928958 -4.603422,-24.60221 -15.780792,-32.587686c-1.860768,-1.324744 -3.84916,-2.474643 -6.016228,-3.860647z" fill="#FFFFFF"/>
    <path stroke="null" id="svg_4" d="m5.312914,38.188801c5.889879,22.678906 20.390596,32.855698 43.796962,30.650344c-1.264761,1.85311 -2.505273,3.338662 -3.370568,5.016926c-1.301772,2.526969 -3.234009,3.069374 -5.942205,3.064269c-6.677323,-0.011486 -13.099397,-0.966119 -19.190924,-3.786624c-7.855299,-3.636027 -13.283177,-9.671398 -17.113194,-17.286763c-1.332402,-2.650765 -2.405725,-5.401077 -3.278678,-8.242002c-0.349692,-1.137136 -0.320338,-1.993498 0.456896,-2.969826c1.225197,-1.541706 2.267891,-3.228904 3.401198,-4.844633c0.340758,-0.48625 0.727461,-0.94187 1.240512,-1.60169z" fill="#FFFFFF"/>
    <path stroke="null" id="svg_5" d="m79.767878,22.502452c0.001276,1.129478 0.02042,2.258957 -0.008934,3.387159c-0.01021,0.391808 0.228448,0.93166 -0.242487,1.138412c-0.398189,0.174846 -0.616427,-0.326719 -0.893373,-0.551339c-2.737549,-2.225774 -5.535082,-4.358383 -8.663163,-6.026438c-10.814916,-5.768636 -21.706406,-5.929443 -32.68851,-0.492631c-3.521165,1.743353 -6.644141,4.064846 -9.653531,6.559909c-0.279498,0.232277 -0.533471,0.686621 -0.927831,0.52709c-0.491355,-0.196542 -0.285879,-0.741499 -0.289708,-1.134583c-0.02042,-2.352123 0.008934,-4.704246 -0.024249,-7.055092c-0.011486,-0.775958 0.241211,-1.323468 0.856362,-1.808442c7.453281,-5.88605 15.70677,-9.799023 25.367958,-10.012156c6.83813,-0.150597 13.16321,1.835243 19.107967,5.125407c2.429974,1.345164 4.725942,2.88687 6.918534,4.598317c0.828284,0.647057 1.239236,1.300496 1.157556,2.362333c-0.085509,1.119268 -0.019144,2.252576 -0.016591,3.382054z" fill="#FFFFFF"/>
    <path stroke="null" id="svg_6" d="m40.144242,4.304448c-1.595309,0.963566 -2.881765,1.721657 -4.150355,2.509101c-7.277159,4.520466 -12.876054,10.488196 -15.881615,18.635756c-2.445289,6.62755 -2.634173,13.403144 -1.124373,20.259142c0.576864,2.618858 1.337507,5.182838 2.279377,7.694492c0.089337,0.238658 0.324167,0.530919 0.028077,0.764472c-0.248868,0.196542 -0.541129,0.052326 -0.801483,-0.044669c-2.468261,-0.91124 -4.931418,-1.837795 -7.407337,-2.728616c-0.536024,-0.192713 -0.681516,-0.62919 -0.823179,-1.063114c-3.911697,-11.907383 -4.211615,-23.58887 2.708196,-34.59267c3.815978,-6.068554 9.098364,-10.72175 15.297094,-14.324594c0.477316,-0.278222 0.940594,-0.42499 1.46896,-0.229724c2.681395,0.994196 5.361513,1.989669 8.406638,3.120423z" fill="#FFFFFF"/>
    <path stroke="null" id="svg_7" d="m47.480109,35.53676c0.111033,0.977605 -0.389255,2.498891 0.835942,3.171473c1.198396,0.657267 2.124951,-0.611322 3.087241,-1.202225c2.284482,-1.400043 4.576621,-1.036312 5.445745,0.913793c0.589626,1.322192 0.31268,2.99918 -0.761919,4.036769c-0.741499,0.715974 -1.588927,1.320915 -2.368714,1.997326c-0.91124,0.788721 -0.866572,1.322192 0.169741,1.962868c0.356073,0.219514 0.755538,0.375217 1.14607,0.530919c1.891398,0.755538 2.769456,2.638002 2.068796,4.460483c-0.65982,1.716552 -2.789876,2.717129 -4.540886,2.056034c-0.784892,-0.296089 -1.52001,-0.736394 -2.250023,-1.161385c-1.687198,-0.981434 -2.630345,-0.514327 -2.811572,1.471513c-0.090614,0.989091 -0.270564,1.950105 -0.56793,2.894528c-0.379045,1.200948 -1.229026,1.749734 -2.454223,1.684646c-1.217539,-0.065089 -1.660397,-0.879334 -1.796956,-1.97563c-0.162083,-1.303048 -0.331824,-2.606096 -0.552615,-3.898934c-0.345863,-2.040719 -1.251998,-2.39041 -2.861345,-1.112887c-0.830837,0.65982 -1.701237,1.16649 -2.803914,1.139688c-1.568507,-0.038287 -2.481024,-1.267313 -2.07773,-2.773284c0.456896,-1.706342 1.813547,-2.578019 3.179131,-3.411408c2.481024,-1.513629 2.516759,-1.67316 0.215686,-3.396093c-1.06439,-0.797654 -2.119846,-1.578717 -2.483576,-2.951959c-0.30247,-1.144793 0.215686,-1.85311 1.389833,-1.837795c1.39749,0.017867 2.632897,0.650886 3.909144,1.117992c1.559574,0.570482 2.352123,0.08168 2.46188,-1.569784c0.093166,-1.39749 -0.067641,-2.789876 0.370112,-4.188642c0.432648,-1.383452 1.319639,-1.735696 2.565256,-1.597861c1.294114,0.14294 1.491933,1.097572 1.485551,2.165791c0,0.422438 0.001276,0.846152 0.001276,1.474065z" fill="#FFFFFF"/>
    <path stroke="null" id="svg_8" d="m99.238299,31.770556c0,-3.106385 -0.011486,-6.214046 0.006381,-9.320431c0.006381,-1.040141 -0.022972,-2.270443 1.087362,-2.709472c1.359203,-0.5373 2.9175,-0.617703 4.234587,0.088061c1.088639,0.583245 0.913793,1.88374 0.917621,2.949406c0.022972,5.46106 0.011486,10.920844 0.011486,16.381904c0,0.800207 0.02042,1.60169 -0.012762,2.40062c-0.085509,2.052205 -0.715974,2.713301 -2.576742,2.746483c-2.861345,0.052326 -3.609226,-0.413504 -3.66921,-2.653317c-0.088061,-3.292717 -0.022972,-6.589262 -0.022972,-9.884532c0.007657,0.001276 0.016591,0.001276 0.024249,0.001276z" fill="#FFFFFF"/>
    <path stroke="null" id="svg_9" d="m105.639953,51.956952c1.910541,0.053602 3.697287,0.430095 5.290043,1.424291c0.633018,0.395637 1.597861,0.815522 1.047799,1.825033c-0.524537,0.961014 -1.440883,1.345164 -2.528245,0.904859c-0.519432,-0.209304 -0.985263,-0.54751 -1.48938,-0.797654c-1.18691,-0.587074 -2.417211,-0.782339 -3.676867,-0.260354c-0.778511,0.32289 -1.406424,0.838494 -1.388557,1.765049c0.017867,0.927831 0.641952,1.456198 1.463855,1.68337c1.130755,0.311404 2.285758,0.530919 3.430551,0.791273c0.594731,0.135282 1.203501,0.231001 1.781641,0.421161c1.702513,0.562825 3.055335,1.480446 3.251877,3.46501c0.213133,2.140266 -0.354797,4.035492 -2.327874,5.048832c-3.572215,1.836519 -7.166126,1.600414 -10.617097,-0.441581c-0.58835,-0.348415 -1.33623,-0.838494 -0.90103,-1.669331c0.441581,-0.843599 1.276247,-1.301772 2.256404,-1.015892c0.666201,0.19399 1.273694,0.593455 1.902884,0.908688c1.57106,0.786168 3.167645,0.823179 4.766782,0.117415c0.770853,-0.340758 1.37707,-0.893373 1.360479,-1.802061c-0.016591,-0.93166 -0.689173,-1.389833 -1.482999,-1.678265c-1.382175,-0.502841 -2.853688,-0.55772 -4.280532,-0.83977c-4.136316,-0.816798 -5.791608,-4.381355 -3.461181,-7.523475c1.392385,-1.881188 3.468839,-2.264062 5.601447,-2.326598z" fill="#FFFFFF"/>
    <path stroke="null" id="svg_10" d="m139.038056,37.80848c0,2.353399 0.008934,4.705522 -0.002552,7.057645c-0.011486,2.621411 -1.06439,4.080161 -3.573491,4.695312c-2.593334,0.635571 -5.212192,0.676411 -7.808078,-0.093166c-0.689173,-0.204199 -1.303048,-0.525814 -1.82248,-1.028655c-0.421161,-0.407123 -0.580692,-0.89082 -0.275669,-1.396214c0.335653,-0.555167 0.898478,-0.518156 1.365584,-0.224619c0.792549,0.497736 1.53022,1.083534 2.298521,1.620833c1.913094,1.340059 4.252454,1.216263 5.969006,-0.310128c1.225197,-1.088639 1.63232,-2.819229 0.996749,-4.234587c-0.529642,-1.183081 -1.726762,-1.696132 -3.487983,-1.497038c-6.760279,0.763196 -10.18445,-3.836398 -7.703426,-10.349086c1.304324,-3.426723 3.656447,-4.697865 7.20569,-3.827464c1.523839,0.37394 3.024705,0.413504 4.588107,0.266736c1.887569,-0.178675 2.242366,0.253973 2.247471,2.121122c0.006381,2.40062 0.001276,4.799964 0.002552,7.199308zm-2.315112,-1.960315c-0.096995,-1.384728 -0.279498,-2.729892 -0.918898,-3.962746c-0.857638,-1.656568 -2.133885,-2.797533 -4.086542,-2.713301c-2.063691,0.089337 -3.53648,1.189462 -4.252454,3.140843c-0.8704,2.371267 -0.677687,4.728494 0.519432,6.93002c1.374518,2.529521 4.521743,3.055335 6.748793,1.216263c1.453645,-1.200948 1.885017,-2.84603 1.989669,-4.61108z" fill="#FFFFFF"/>
    <path stroke="null" id="svg_11" d="m137.807754,60.664784c-0.002552,-2.207907 0.019144,-4.41709 -0.01021,-6.624997c-0.016591,-1.282628 0.479869,-1.882464 1.839072,-1.858215c3.100004,0.056155 6.201283,0.033182 9.302563,0.008934c1.031207,-0.007657 1.779088,0.223343 1.758668,1.44854c-0.02042,1.204777 -0.765748,1.460026 -1.794403,1.440883c-1.643806,-0.029354 -3.290164,-0.039564 -4.932694,0.001276c-1.565955,0.039564 -2.265338,0.724908 -2.252576,2.091769c0.012762,1.449816 0.62919,2.076454 2.204078,2.121122c1.549364,0.043392 3.10128,0.029354 4.650643,0.012762c0.987815,-0.01021 1.503419,0.432648 1.490656,1.430673c-0.012762,0.980158 -0.514327,1.44854 -1.502143,1.439606c-1.55064,-0.015315 -3.10128,-0.022972 -4.65192,0.002552c-1.619557,0.025525 -2.089216,0.447963 -2.206631,2.076454c-0.084232,1.169042 -0.07147,2.347018 -0.074022,3.521165c-0.003829,1.412805 -0.954633,1.531496 -2.019022,1.523839c-1.06439,-0.006381 -1.830138,-0.293537 -1.809718,-1.588927c0.034459,-2.34957 0.008934,-4.699141 0.007657,-7.047435z" fill="#FFFFFF"/>
    <path stroke="null" id="svg_12" d="m151.972818,35.568667c-1.595309,0.019144 -3.200827,-0.128901 -4.778268,0.260354c-2.177277,0.538576 -3.014495,2.503996 -1.895227,4.46814c1.351545,2.373819 4.700417,3.200827 7.016805,1.724209c0.673858,-0.428819 1.308153,-0.924003 2.00626,-1.305601c0.354797,-0.19399 0.841047,-0.270564 1.160108,0.139111c0.285879,0.367559 0.068917,0.746604 -0.158255,1.032484c-0.288432,0.362454 -0.613875,0.738947 -1.005682,0.971224c-2.829439,1.675712 -5.824791,1.897779 -8.772921,0.509222c-2.733721,-1.287733 -3.815978,-3.757271 -3.980614,-6.672218c-0.1021,-1.810994 0.139111,-3.570939 0.913793,-5.227507c1.317087,-2.817953 4.046979,-4.166946 7.782553,-3.867028c3.051506,0.245039 5.341093,2.089216 6.136195,4.983744c0.148045,0.5373 0.202923,1.109058 0.234829,1.668055c0.049774,0.869124 -0.405846,1.310705 -1.273694,1.314534c-1.128202,0.005105 -2.256404,0.001276 -3.385883,0.001276zm-2.597162,-0.562825c0.297366,0 0.675135,0.03063 1.047799,-0.005105c1.419186,-0.135282 2.652041,-1.142241 2.86645,-2.313835c0.215686,-1.175423 -0.561549,-2.565256 -1.805889,-3.225076c-1.449816,-0.769577 -3.957641,-0.524537 -5.20964,0.507946c-1.620833,1.33623 -1.405148,3.539032 0.436476,4.548544c0.811693,0.444134 1.680817,0.556444 2.664803,0.487526z" fill="#FFFFFF"/>
    <path stroke="null" id="svg_13" d="m192.059731,35.572495c-1.595309,0.015315 -3.202103,-0.137835 -4.774439,0.275669c-2.038166,0.5373 -2.830715,2.21046 -1.95521,4.147802c1.126926,2.493786 4.655748,3.570939 6.986175,2.121122c0.718527,-0.446686 1.396214,-0.959738 2.126227,-1.384728c0.372664,-0.216962 0.855085,-0.264183 1.181805,0.085509c0.371388,0.399465 0.072746,0.80914 -0.177398,1.140965c-0.223343,0.294813 -0.492631,0.583245 -0.801483,0.782339c-2.737549,1.754839 -5.670365,1.982011 -8.624876,0.760643c-2.755417,-1.138412 -3.948708,-3.49564 -4.257559,-6.340394c-0.174846,-1.605519 0.005105,-3.199551 0.500289,-4.738704c1.086086,-3.379502 4.015073,-5.140722 7.9842,-4.838252c3.568386,0.271841 5.975388,2.452946 6.530555,5.917957c0.255249,1.59148 -0.128901,2.0471 -1.753563,2.070072c-0.51688,0.007657 -1.035036,0 -1.553192,0c-0.470935,0 -0.94187,0 -1.411529,0zm-2.463156,-0.566654c0.234829,0 0.612598,0.03063 0.983986,-0.005105c1.420463,-0.137835 2.683947,-1.153727 2.893252,-2.298521c0.222067,-1.213711 -0.613875,-2.710748 -1.948829,-3.282507c-1.551916,-0.664925 -3.1217,-0.579416 -4.605975,0.232277c-1.0746,0.587074 -1.657845,1.526391 -1.539154,2.780942c0.114862,1.218816 0.932936,1.885017 1.997326,2.312559c0.671306,0.268012 1.369413,0.307575 2.219393,0.260354z" fill="#FFFFFF"/>
    <path stroke="null" id="svg_14" d="m229.720498,36.982748c0,1.885017 -0.015315,3.482878 0.005105,5.079462c0.016591,1.226473 -0.584521,1.828862 -1.751011,1.511076c-2.086664,-0.56793 -4.062294,-0.375217 -6.05962,0.390532c-0.828284,0.317785 -1.779088,0.238658 -2.653317,0.052326c-1.618281,-0.344587 -2.900909,-1.188186 -3.310584,-2.885594c-0.418609,-1.735696 0.034459,-3.250601 1.466408,-4.413262c1.294114,-1.050351 2.853688,-1.364308 4.428576,-1.666778c0.827008,-0.158255 1.665502,-0.324167 2.450394,-0.615151c2.114741,-0.783616 2.826887,-2.094321 2.188763,-3.863199c-0.652162,-1.808442 -2.623963,-2.764351 -4.46814,-2.117293c-0.520709,0.182503 -0.99292,0.514327 -1.46896,0.807864c-0.358625,0.222067 -0.662372,0.533471 -1.029931,0.735118c-0.613875,0.336929 -1.467684,0.823179 -1.892674,0.123796c-0.500289,-0.823179 0.357349,-1.378347 1.037589,-1.675712c2.939196,-1.282628 5.942205,-1.240512 8.906927,-0.127625c1.126926,0.423714 1.661673,1.449816 1.906713,2.622687c0.437753,2.100702 0.136558,4.221824 0.243763,6.041752zm-7.645995,5.745663c2.165791,-0.011486 4.015073,-1.322192 4.614909,-3.274849c0.695555,-2.261509 -0.865295,-4.272874 -3.207208,-4.064846c-1.553192,0.137835 -2.888147,0.798931 -3.916802,1.999879c-0.856362,1.000578 -1.211158,2.123675 -0.636847,3.387159c0.60877,1.340059 1.694856,1.951381 3.145948,1.952658z" fill="#FFFFFF"/>
    <path stroke="null" id="svg_15" d="m159.187441,35.975789c0,-1.928409 -0.02042,-3.856818 0.006381,-5.783951c0.021696,-1.531496 0.488803,-1.980735 1.974354,-1.810994c1.928409,0.219514 3.813426,0.315233 5.704823,-0.344587c0.721079,-0.251421 1.587651,-0.186332 2.376372,-0.123796c1.772707,0.140387 2.92771,1.126926 3.105109,2.902185c0.38415,3.841503 0.13273,7.703426 0.13273,11.556415c0,0.662372 -0.307575,1.1767 -1.110335,1.174147c-0.874229,-0.002552 -1.12565,-0.533471 -1.137136,-1.282628c-0.034459,-2.209183 -0.075299,-4.418367 -0.093166,-6.628826c-0.01021,-1.230302 -0.118691,-2.437631 -0.553891,-3.601569c-0.541129,-1.445988 -1.528944,-2.354675 -3.084689,-2.541007c-1.569784,-0.187608 -2.869003,0.327995 -3.824912,1.617005c-0.912516,1.230302 -1.137136,2.660975 -1.148622,4.138868c-0.016591,2.021575 -0.002552,4.044426 -0.003829,6.066001c0,0.329272 0.016591,0.65982 -0.014039,0.986539c-0.070194,0.750433 -0.4352,1.225197 -1.246893,1.243064c-0.846152,0.019144 -1.035036,-0.590902 -1.045246,-1.221368c-0.034459,-2.114741 -0.012762,-4.232034 -0.012762,-6.346775c-0.008934,0.001276 -0.016591,0.001276 -0.024249,0.001276z" fill="#FFFFFF"/>
    <path stroke="null" id="svg_16" d="m121.752569,36.879372c0,1.692303 0.025525,3.384607 -0.011486,5.075634c-0.016591,0.763196 -0.105928,1.579994 -1.175423,1.579994c-1.082257,0 -1.112887,-0.779787 -1.123097,-1.574889c-0.026801,-2.113465 -0.075299,-4.228206 -0.098271,-6.34167c-0.014039,-1.229026 -0.123796,-2.438908 -0.555167,-3.601569c-0.5373,-1.44854 -1.558297,-2.352123 -3.098727,-2.529521c-1.555745,-0.178675 -2.871555,0.331824 -3.815978,1.637425c-0.862743,1.193291 -1.132031,2.562704 -1.139688,3.997205c-0.011486,2.256404 -0.007657,4.512809 -0.001276,6.769213c0.002552,0.881887 -0.164636,1.647635 -1.259656,1.638701c-1.143517,-0.008934 -1.015892,-0.895925 -1.017169,-1.634872c-0.008934,-3.948708 0.02042,-7.897415 -0.019144,-11.844847c-0.012762,-1.308153 0.58835,-1.846729 1.807166,-1.687198c2.021575,0.265459 3.96147,0.137835 5.980493,-0.330548c3.643685,-0.844875 5.418944,0.708317 5.519768,4.477074c0.04084,1.454921 0.007657,2.912395 0.007657,4.369869z" fill="#FFFFFF"/>
    <path stroke="null" id="svg_17" d="m199.472172,35.72054c0,-1.927133 -0.021696,-3.854265 0.006381,-5.780122c0.029354,-1.989669 0.673858,-2.5844 2.59461,-2.297244c1.531496,0.228448 3.042572,0.56793 4.608527,0.335653c0.562825,-0.084232 1.046522,0.126348 1.202225,0.727461c0.136558,0.528366 0.053602,1.052904 -0.421161,1.396214c-0.416056,0.30247 -0.857638,0.584521 -1.322192,0.802759c-2.269167,1.066942 -3.200827,2.86645 -3.133186,5.333435c0.056155,2.063691 0.042116,4.137592 -0.084232,6.197455c-0.085509,1.406424 -1.098849,1.933514 -2.395515,1.454921c-0.8704,-0.321614 -1.012064,-1.05418 -1.019721,-1.825033c-0.02042,-2.114741 -0.007657,-4.229482 -0.007657,-6.342947c-0.008934,-0.002552 -0.017867,-0.002552 -0.028077,-0.002552z" fill="#FFFFFF"/>
    <path stroke="null" id="svg_18" d="m170.200175,63.31172c0.05105,3.685801 -2.215564,6.002189 -5.923062,6.050686c-3.644961,0.048497 -6.023885,-2.202802 -6.08004,-5.752044c-0.056155,-3.541585 2.163238,-6.0392 5.42022,-6.101736c4.173327,-0.080404 6.530555,1.997326 6.582881,5.803094zm-2.035614,0.164636c0.006381,-3.194446 -1.869702,-5.162418 -4.540886,-4.765506c-1.909265,0.283327 -3.314413,1.952658 -3.43438,4.077609c-0.15315,2.727339 1.027379,4.789754 3.027257,5.284938c2.714577,0.672582 4.941628,-1.39749 4.948009,-4.597041z" fill="#FFFFFF"/>
    <path stroke="null" id="svg_19" d="m224.255609,57.227851c1.394938,0.034459 2.468261,0.127625 3.438209,0.686621c0.289708,0.167188 0.589626,0.400742 0.477316,0.768301c-0.113586,0.375217 -0.501565,0.416056 -0.830837,0.356073c-0.505394,-0.09189 -1.004406,-0.227172 -1.495761,-0.381598c-0.69045,-0.215686 -1.38728,-0.284603 -2.076454,-0.063812c-0.703212,0.224619 -1.287733,0.630466 -1.386004,1.431949c-0.099547,0.804035 0.358625,1.343888 1.008235,1.711447c0.95208,0.538576 2.022851,0.728737 3.07065,0.990368c2.085387,0.521985 2.932815,1.36686 2.954511,2.869003c0.024249,1.582546 -1.009511,2.875384 -2.83582,3.411408c-1.966696,0.576864 -3.911697,0.356073 -5.789056,-0.400742c-0.495184,-0.200371 -1.193291,-0.497736 -0.881887,-1.19712c0.270564,-0.610046 0.918898,-0.31268 1.378347,-0.134006c1.051627,0.408399 2.071349,0.885715 3.246772,0.811693c1.138412,-0.07147 2.064967,-0.484974 2.295968,-1.679541c0.236106,-1.218816 -0.654715,-1.794403 -1.609347,-2.15941c-0.783616,-0.298642 -1.624662,-0.449239 -2.445289,-0.645781c-2.096874,-0.501565 -3.062992,-1.42812 -3.048954,-2.940473c0.015315,-1.548087 1.138412,-2.780942 3.0196,-3.237838c0.58835,-0.14294 1.207329,-0.159531 1.5098,-0.196542z" fill="#FFFFFF"/>
    <path stroke="null" id="svg_20" d="m196.603169,63.046261c-1.124373,0.002552 -2.257681,-0.104652 -3.366739,0.195266c-1.627215,0.440305 -2.182382,1.83269 -1.289009,3.267192c0.981434,1.574889 3.214866,2.100702 4.839528,1.132031c0.362454,-0.216962 0.714698,-0.453068 1.06439,-0.69045c0.402018,-0.271841 0.895925,-0.604941 1.239236,-0.113586c0.339482,0.484974 -0.182503,0.855085 -0.519432,1.160108c-2.854964,2.5844 -8.018659,1.096296 -9.104745,-2.616306c-1.08481,-3.706221 0.717251,-7.306513 3.972956,-7.938255c3.157435,-0.612598 5.763531,0.938041 6.400378,3.807044c0.329272,1.484275 0.100823,1.780364 -1.401319,1.795679c-0.613875,0.006381 -1.225197,0.001276 -1.835243,0.001276zm-1.913094,-0.380322c1.313258,0.011486 2.269167,-0.403294 2.664803,-1.194567c0.379045,-0.758091 0.186332,-1.461303 -0.307575,-2.091769c-1.068219,-1.363032 -3.835122,-1.299219 -4.849738,0.100823c-0.667477,0.920174 -0.468383,2.034337 0.48625,2.690328c0.604941,0.41478 1.290286,0.518156 2.00626,0.495184z" fill="#FFFFFF"/>
    <path stroke="null" id="svg_21" d="m179.036908,35.858375c0,1.782917 0.014039,3.56711 -0.008934,5.350027c-0.007657,0.55772 -0.057431,1.128202 -0.187608,1.669331c-0.195266,0.806588 -0.797654,1.103954 -1.596585,1.060561c-0.756814,-0.04084 -1.276247,-0.409675 -1.338783,-1.175423c-0.090614,-1.119268 -0.123796,-2.246194 -0.130177,-3.369292c-0.016591,-3.003009 -0.008934,-6.007294 0,-9.010303c0.001276,-0.467106 0.021696,-0.94187 0.108481,-1.39749c0.165912,-0.861467 0.722356,-1.277523 1.602966,-1.246893c0.884439,0.031906 1.443435,0.453068 1.453645,1.368137c0.024249,2.250023 0.007657,4.501323 0.007657,6.751346c0.03063,0 0.059984,0 0.089337,0z" fill="#FFFFFF"/>
    <path stroke="null" id="svg_22" d="m218.12452,64.239551c0,1.082257 -0.025525,2.164515 0.007657,3.245496c0.029354,0.968671 -0.359902,1.493209 -1.343888,1.223921c-1.426844,-0.390532 -2.757969,-0.151873 -4.141421,0.257802c-1.956486,0.579416 -3.832569,-0.313957 -4.307333,-1.897779c-0.51688,-1.722933 0.538576,-3.406303 2.606096,-4.030387c0.981434,-0.296089 2.022851,-0.391808 3.001733,-0.694278c0.897202,-0.276946 1.841624,-0.658543 1.999879,-1.757392c0.139111,-0.959738 -0.280774,-1.773983 -1.092467,-2.292139c-0.961014,-0.613875 -1.967973,-0.542405 -2.926434,0.059984c-0.552615,0.347139 -1.001854,0.871677 -1.678265,1.001854c-0.271841,0.052326 -0.579416,0.094442 -0.756814,-0.205476c-0.182503,-0.308852 0.02042,-0.571759 0.218238,-0.745328c0.276946,-0.242487 0.601112,-0.458173 0.943146,-0.589626c0.478593,-0.185056 0.98271,-0.334377 1.48938,-0.409675c4.474521,-0.667477 5.983045,0.635571 5.981769,5.139446c-0.001276,0.564101 -0.001276,1.129478 -0.001276,1.69358zm-5.350027,3.877238c1.789298,-0.03063 3.361634,-1.516181 3.319518,-3.137015c-0.03063,-1.18691 -0.959738,-2.043271 -2.215564,-2.041995c-1.826309,0.001276 -3.676867,1.568507 -3.605397,3.051506c0.06126,1.230302 1.143517,2.150476 2.501444,2.127503z" fill="#FFFFFF"/>
    <path stroke="null" id="svg_23" d="m171.767406,63.69587c0,-1.456198 0.035735,-2.914948 -0.012762,-4.369869c-0.034459,-1.040141 0.391808,-1.528944 1.420463,-1.369413c1.507248,0.233553 2.945578,0.044669 4.441339,-0.270564c2.769456,-0.583245 4.044426,0.597284 4.054636,3.468839c0.007657,2.255128 0.003829,4.511533 0,6.766661c-0.001276,0.61898 0.043392,1.308153 -0.842323,1.338783c-0.913793,0.03063 -0.862743,-0.657267 -0.8704,-1.282628c-0.02042,-1.691027 -0.005105,-3.384607 -0.079127,-5.073081c-0.119967,-2.761798 -1.262208,-4.195023 -3.214866,-4.138868c-1.911818,0.054879 -3.139567,1.666778 -3.185512,4.242244c-0.029354,1.643806 -0.005105,3.288888 -0.008934,4.93397c-0.001276,0.640676 -0.048497,1.295391 -0.903583,1.308153c-0.963566,0.015315 -0.786168,-0.745328 -0.792549,-1.32602c-0.017867,-1.408976 -0.006381,-2.819229 -0.006381,-4.228206z" fill="#FFFFFF"/>
    <path stroke="null" id="svg_24" d="m119.914774,63.298958c0,-1.365584 0.011486,-2.729892 -0.003829,-4.095476c-0.01021,-0.967395 0.456896,-1.431949 1.398767,-1.268589c1.46896,0.255249 2.865174,0.012762 4.312438,-0.266736c2.542284,-0.491355 3.733022,0.581969 3.768757,3.175302c0.029354,2.164515 0.012762,4.331582 0.002552,6.496096c-0.002552,0.611322 0.048497,1.333678 -0.842323,1.342612c-0.932936,0.008934 -0.797654,-0.751709 -0.80914,-1.341335c-0.033182,-1.647635 0.003829,-3.296546 -0.075299,-4.941628c-0.103376,-2.1492 -1.014616,-3.429275 -2.469538,-3.643685c-1.671883,-0.247592 -2.996628,0.736394 -3.429275,2.617582c-0.395637,1.717828 -0.105928,3.471391 -0.18378,5.207087c-0.019144,0.422438 0.001276,0.847428 -0.025525,1.269866c-0.035735,0.561549 -0.349692,0.857638 -0.916345,0.842323c-0.564101,-0.014039 -0.701936,-0.436476 -0.708317,-0.875505c-0.021696,-1.505971 -0.008934,-3.013219 -0.008934,-4.51919c-0.003829,0.001276 -0.007657,0.001276 -0.01021,0.001276z" fill="#FFFFFF"/>
    <path stroke="null" id="svg_25" d="m210.119899,35.827745c0,-2.022851 -0.014039,-4.046979 0.005105,-6.06983c0.01021,-1.109058 0.349692,-1.933514 1.705066,-1.899055c1.327297,0.033182 1.495761,0.91124 1.500866,1.923304c0.016591,3.952536 0.025525,7.905073 0.019144,11.857609c-0.001276,0.416056 -0.074022,0.844875 -0.190161,1.245617c-0.231001,0.789997 -0.807864,1.109058 -1.614452,1.052904c-0.835942,-0.058707 -1.328573,-0.504117 -1.338783,-1.33623c-0.026801,-2.257681 -0.008934,-4.515361 -0.008934,-6.773042c-0.026801,-0.001276 -0.052326,-0.001276 -0.077851,-0.001276z" fill="#FFFFFF"/>
    <path stroke="null" id="svg_26" d="m184.295045,63.824771c-0.042116,-1.821204 0.245039,-3.706221 -1.348993,-5.133065c-0.213133,-0.190161 -0.245039,-0.575587 -0.048497,-0.789997c0.823179,-0.89082 1.291562,-1.923304 1.507248,-3.114042c0.095719,-0.529642 0.617703,-0.676411 1.116716,-0.673858c0.539852,0.002552 0.894649,0.301194 0.994196,0.823179c0.215686,1.128202 0.495184,2.182382 1.595309,2.840925c0.477316,0.285879 0.261631,0.666201 -0.086785,1.037589c-2.216841,2.361057 -2.105807,6.705401 0.206752,9.074115c0.264183,0.270564 0.570482,0.538576 0.431371,0.967395c-0.148045,0.456896 -0.519432,0.613875 -0.978881,0.671306c-1.782917,0.223343 -3.167645,-0.784892 -3.366739,-2.600991c-0.113586,-1.024826 -0.021696,-2.068796 -0.021696,-3.102556z" fill="#FFFFFF"/>
    <path stroke="null" id="svg_27" d="m201.812809,63.159847c0,-1.361755 -0.042116,-2.726063 0.011486,-4.086542c0.057431,-1.472789 0.643228,-1.932238 2.096874,-1.639977c0.930384,0.186332 1.846729,0.31268 2.793704,0.216962c0.488803,-0.048497 0.973776,-0.015315 1.124373,0.57814c0.137835,0.542405 -0.169741,0.89082 -0.599836,1.151175c-0.280774,0.169741 -0.56793,0.331824 -0.86019,0.481145c-1.411529,0.715974 -2.00626,1.906713 -2.010089,3.440761c-0.003829,1.31581 0.016591,2.630345 -0.007657,3.946155c-0.016591,0.844875 0.052326,1.775259 -1.235407,1.771431c-1.258379,-0.003829 -1.254551,-0.940594 -1.286457,-1.772707c-0.052326,-1.360479 -0.014039,-2.723511 -0.014039,-4.086542c-0.006381,0 -0.01021,0 -0.012762,0z" fill="#FFFFFF"/>
    <path stroke="null" id="svg_28" d="m151.606535,63.101139c0,-1.4077 -0.012762,-2.816677 0.003829,-4.224377c0.014039,-1.208606 0.667477,-1.728038 1.830138,-1.484275c1.06439,0.223343 2.122398,0.365007 3.209761,0.253973c0.409675,-0.042116 0.744052,0.08168 0.894649,0.507946c0.165912,0.469659 0.011486,0.936765 -0.391808,1.088639c-3.334833,1.248169 -3.147225,4.030387 -3.034915,6.801119c0.024249,0.607493 -0.02042,1.218816 -0.05105,1.827585c-0.034459,0.70066 -0.331824,1.157556 -1.114163,1.155003c-0.773406,-0.002552 -1.286457,-0.320338 -1.297943,-1.139688c-0.024249,-1.595309 -0.006381,-3.190617 -0.006381,-4.784649c-0.014039,-0.001276 -0.028077,-0.001276 -0.042116,-0.001276z" fill="#FFFFFF"/>
    <path stroke="null" id="svg_29" d="m117.503944,63.223659c0,1.408976 0.034459,2.819229 -0.014039,4.226929c-0.026801,0.775958 -0.201647,1.531496 -1.255827,1.512352c-1.045246,-0.017867 -1.037589,-0.802759 -1.045246,-1.498314c-0.033182,-2.816677 -0.047221,-5.63463 -0.028077,-8.452583c0.005105,-0.775958 0.148045,-1.546811 1.229026,-1.504695c0.996749,0.038287 1.079705,0.769577 1.096296,1.48938c0.031906,1.4077 0.008934,2.817953 0.008934,4.226929c0.002552,0 0.005105,0 0.008934,0z" fill="#FFFFFF"/>
    <path stroke="null" id="svg_30" d="m213.24798,22.286766c0.368835,0.021696 0.881887,0.003829 0.856362,0.693002c-0.028077,0.778511 -1.719104,2.327874 -2.558875,2.335532c-0.571759,0.006381 -1.026102,-0.213133 -1.022274,-0.8704c0.002552,-0.885715 1.576165,-2.158133 2.724787,-2.158133z" fill="#FFFFFF"/>
    <path stroke="null" id="svg_31" d="m177.024267,21.443167c0.91124,0.034459 1.586375,0.082956 1.62211,0.884439c0.034459,0.800207 -0.62919,0.969948 -1.254551,0.969948c-0.621532,0 -1.281352,-0.149321 -1.255827,-0.963566c0.021696,-0.694278 0.5373,-0.912516 0.888268,-0.89082z" fill="#FFFFFF"/>
    <path stroke="null" id="svg_32" d="m116.211106,53.023894c0.433924,0.014039 0.917621,0.068917 0.990368,0.56793c0.075299,0.521985 -0.37394,0.718527 -0.812969,0.750433c-0.427543,0.03063 -0.898478,-0.056155 -0.966119,-0.57814c-0.067641,-0.525814 0.299918,-0.731289 0.788721,-0.740223z" fill="#FFFFFF"/>
   </g>
  </g>
 </g>
</svg>