<svg id="Capa_1" data-name="Capa 1" xmlns="http://www.w3.org/2000/svg" viewBox="0 0 477.49 134.08"><title>logo-icarto-small-hor</title><path d="M14.33,106.67l-.55.55H5.55L5,106.67V33.39l.55-.66,8.22-1.11.55.44Z" transform="translate(-5 -2.96)" style="fill:#fff"/><path d="M82.17,89.13l7.22,2.78.33.66c-3.66,10.54-13.43,16-27.09,16-17.76,0-29-9.33-29-27.21V58.71c0-18,11.21-27.53,29-27.53,12.21,0,22,5.55,26,15.31l-.33.66-7.44,3.11L80.06,50c-3-6.11-9.44-10-17.43-10C51.31,40.06,43,46.61,43,59.49V80.36c0,13.21,8.33,19.32,19.65,19.32,9.1,0,15.65-3.67,18.76-10.32Z" transform="translate(-5 -2.96)" style="fill:#fff"/><path d="M159.34,106.67l-.33.55h-9.88l-.66-.55L142.81,89H112.39l-5.66,17.65-.55.55h-10l-.33-.55,26.2-73.28.66-.55L132,31.62l.66.44ZM115.16,80.14H140l-11.32-34-1.11-4.77-1.11,4.77Z" transform="translate(-5 -2.96)" style="fill:#fff"/><path d="M180.46,76.36v30.31l-.55.55h-8.22l-.55-.55V32.62l.55-.33h19.76c12.65,0,25.54,5.55,25.54,22,0,13.54-11.43,21.32-22,21.76l2.67,2.56,13.1,15.65a10.94,10.94,0,0,0,8.88,4.66c.44,0,.77-.11,1.22-.11l.44.55-1.22,7.55-.66.55a16.58,16.58,0,0,1-2.33.22c-8.77,0-13.77-7.88-14.77-9.21L185.12,76.8l-.77-.44h-3.89Zm0-35.41V67.59h10.88c8.1,0,16.32-3.55,16.32-13.32s-8.22-13.32-16.32-13.32Z" transform="translate(-5 -2.96)" style="fill:#fff"/><path d="M224.66,32.29h52.07l.44.55-2,7.78-.66.55H254.64v65.5l-.55.55h-8.22l-.55-.55V41.17H224.66l-.55-.55V32.84Z" transform="translate(-5 -2.96)" style="fill:#fff"/><path d="M284,81.36V58.71c0-18,11.21-27.53,29-27.53,18,0,29.09,9.55,29.09,27.53V81.36c0,17.88-11.1,27.21-29.09,27.21C295.18,108.56,284,99.23,284,81.36Zm9.32-21.87V80.36c0,13.21,8.33,19.32,19.65,19.32,11.54,0,19.76-6.1,19.76-19.32V59.49c0-12.88-8.21-19.43-19.76-19.43C301.61,40.06,293.29,46.61,293.29,59.49Z" transform="translate(-5 -2.96)" style="fill:#fff"/><path d="M413.68,69.8a9.6,9.6,0,0,0,3.48,7.55,9.49,9.49,0,0,0,5.9,2.2,9.66,9.66,0,0,0,7.56-3.47,9.54,9.54,0,0,0,2.21-5.91,9.58,9.58,0,1,0-19.16-.37Zm-20.91-7c3.39-.62,6.95-1.22,10.57-1.8,4.47,13,8.65,4,11-11C417.67,29,422,10.74,423.27,10.74s5.58,18.38,8.93,39.33c-13,4.47-4,8.64,11,11,20.95,3.31,39.26,7.67,39.26,8.91s-18.38,5.58-39.32,8.92c-4.47-13-8.65-4-11,11-3.31,20.95-7.67,39.25-8.91,39.25s-5.58-18.38-8.92-39.32c13-4.47,4-8.65-11-11-3.61-.57-7.14-1.17-10.52-1.79-.14-2.31-.22-4.66-.22-7S392.62,65.2,392.77,62.83ZM364,69.95c0-.87,9.06-3.27,21.69-5.77-.1,1.92-.15,3.86-.15,5.83s0,3.85.15,5.74C373.06,73.23,364,70.82,364,69.95Z" transform="translate(-5 -2.96)" style="fill:#fff"/><polygon points="412.44 72.83 416.88 65.64 424.08 61.2 419.64 68.4 412.44 72.83" style="fill:#fff"/><path d="M435.06,51.36c7.61-4.82,11.43-5.7,11.93-5.22s-.1,2.77-2.52,7.33A75.14,75.14,0,0,1,435.06,51.36Zm-30.33,7.42a54.82,54.82,0,0,0,2.54-9.65c-5.15-2.84-7.79-3.39-8.2-3S399.54,50.68,404.73,58.78ZM399.05,94c.51.53,4.59-.46,12.68-5.67a51.75,51.75,0,0,0-9.61-2.62C399.21,90.95,398.65,93.65,399.05,94Zm47.91,0c.51-.49-.4-4.33-5.21-11.94a78.75,78.75,0,0,0-2.08,9.44C444.22,94,446.6,94.44,447,94.06Z" transform="translate(-5 -2.96)" style="fill:#fff"/><path d="M452.84,115.37C445.27,128.7,434.39,137,422.32,137c-22.89,0-41.45-30-41.45-67S399.43,3,422.32,3c12.06,0,22.94,8.34,30.51,21.67-7.06-11.15-16.73-18-27.38-18C403.82,6.6,386.27,35,386.27,70s17.55,63.39,39.19,63.39C436.12,133.4,445.77,126.52,452.84,115.37Z" transform="translate(-5 -2.96)" style="fill:#fff"/></svg>