<svg id="Capa_1" data-name="Capa 1" xmlns="http://www.w3.org/2000/svg" viewBox="0 0 138.76 138.76"><title>logo-icarto-small</title><g id="g3381"><path id="path3383" d="M119.8,20.32a69.38,69.38,0,1,0,0,98.12,69.38,69.38,0,0,0,0-98.12" transform="translate(-1.36 0)" style="fill:#ccc"/></g><g id="g3385"><path id="path3387" d="M28.43,88l-.15.15h-2.2L25.93,88V68.39l.15-.18,2.2-.3.15.12Z" transform="translate(-1.36 0)" style="fill:#fff"/></g><g id="g3389"><path id="path3391" d="M46.62,83.33l1.93.74.09.18c-1,2.83-3.6,4.29-7.26,4.29-4.76,0-7.77-2.5-7.77-7.29V75.17c0-4.82,3-7.38,7.77-7.38,3.27,0,5.89,1.49,7,4.11l-.09.18-2,.83-.21-.06a5,5,0,0,0-4.67-2.68c-3,0-5.27,1.76-5.27,5.21V81c0,3.54,2.23,5.18,5.27,5.18,2.44,0,4.2-1,5-2.77Z" transform="translate(-1.36 0)" style="fill:#fff"/></g><g id="g3393"><path id="path3395" d="M55.46,80.92h6.67l-3-9.11-.3-1.28-.3,1.28ZM67.31,88l-.09.15H64.57L64.39,88,62.87,83.3H54.72L53.2,88l-.15.15H50.37L50.28,88l7-19.65.18-.15,2.5-.33.18.12Z" transform="translate(-1.36 0)" style="fill:#fff"/></g><g id="g3397"><path id="path3399" d="M73,70.41v7.14h2.92c2.17,0,4.38-1,4.38-3.57s-2.2-3.57-4.38-3.57Zm0,9.5V88l-.15.15h-2.2L70.46,88V68.18l.15-.09h5.3c3.39,0,6.85,1.49,6.85,5.9a6,6,0,0,1-5.9,5.83l.72.69,3.51,4.2A2.93,2.93,0,0,0,83.47,86c.12,0,.21,0,.33,0l.12.15-.33,2-.18.15a4.37,4.37,0,0,1-.63.06c-2.35,0-3.69-2.11-4-2.47L74.22,80,74,79.91Z" transform="translate(-1.36 0)" style="fill:#fff"/></g><g id="g3401"><path id="path3403" d="M84.81,68.09h14l.12.15-.54,2.08-.18.15H92.85V88l-.15.15H90.5L90.35,88V70.47H84.81l-.15-.15V68.24Z" transform="translate(-1.36 0)" style="fill:#fff"/></g><g id="g3405"><path id="path3407" d="M103.21,75.38V81c0,3.54,2.23,5.18,5.27,5.18s5.3-1.64,5.3-5.18v-5.6c0-3.45-2.2-5.21-5.3-5.21s-5.27,1.76-5.27,5.21m-2.5,5.86V75.17c0-4.82,3-7.38,7.77-7.38s7.8,2.56,7.8,7.38v6.07c0,4.79-3,7.29-7.8,7.29s-7.77-2.5-7.77-7.29" transform="translate(-1.36 0)" style="fill:#fff"/></g><g id="g3581"><path id="path3583" d="M73,45a2.57,2.57,0,0,1-4-3.27,2.65,2.65,0,0,1,2-.92,2.56,2.56,0,0,1,2.52,2.61A2.5,2.5,0,0,1,73,45m3.38-4c-4-.64-6.44-1.76-3-3-.91-5.61-2.07-10.54-2.39-10.54S69.57,32.4,68.69,38c-.64,4-1.75,6.44-3,2.95-1,.16-1.93.32-2.84.49,0,.64-.06,1.28-.06,1.93s0,1.26.06,1.88c.91.18,1.85.32,2.82.48,4,.64,6.44,1.75,3,3,.89,5.61,2.06,10.54,2.39,10.54s1.5-4.91,2.39-10.53c.64-4,1.75-6.44,3-3C82,44.87,87,43.71,87,43.38S82,41.87,76.43,41" transform="translate(-1.36 0)" style="fill:#fff"/></g><g id="g3585"><path id="path3587" d="M69.52,44.93,70.71,43l1.93-1.19-1.19,1.93Z" transform="translate(-1.36 0)" style="fill:#fff"/></g><g id="g3589"><path id="path3591" d="M77.43,49.83c.13-.13-.11-1.16-1.4-3.2a21,21,0,0,0-.56,2.53c1.22.65,1.86.77,2,.67m-12.85,0c.14.14,1.23-.12,3.4-1.52a13.7,13.7,0,0,0-2.58-.7c-.78,1.4-.93,2.12-.82,2.22m1.52-9.45a14.66,14.66,0,0,0,.68-2.59c-1.38-.76-2.09-.91-2.2-.8s.12,1.22,1.52,3.39m8.13-2c2-1.29,3.06-1.53,3.2-1.4s0,.74-.68,2a19.56,19.56,0,0,1-2.52-.57" transform="translate(-1.36 0)" style="fill:#fff"/></g><g id="g3593"><path id="path3595" d="M79,55.55c-2,3.56-4.94,5.81-8.18,5.81C65,61.35,60.16,54,59.76,44.67c-2.71-.57-4.56-1.1-4.56-1.31s1.85-.72,4.56-1.29c.4-9.32,5.2-16.65,11.07-16.65,3.24,0,6.14,2.23,8.18,5.81-1.9-3-4.5-4.83-7.35-4.83-5.79,0-10.5,7.61-10.5,17s4.71,17,10.5,17c2.86,0,5.46-1.85,7.35-4.83" transform="translate(-1.36 0)" style="fill:#fff"/></g></svg>