<svg id="Capa_1" data-name="Capa 1" xmlns="http://www.w3.org/2000/svg" viewBox="0 0 115.33 130.52"><title>logo-icarto-small-hor-circle</title><path d="M58.18,67.3a9.34,9.34,0,0,0,3.39,7.35,9.24,9.24,0,0,0,5.74,2.14,9.4,9.4,0,0,0,7.36-3.37,9.28,9.28,0,0,0,2.15-5.75,9.33,9.33,0,1,0-18.65-.36ZM37.83,60.52c3.3-.61,6.76-1.19,10.29-1.75C52.47,71.43,56.54,62.62,58.84,48c3.23-20.39,7.47-38.22,8.68-38.22s5.43,17.89,8.69,38.28C63.54,52.44,72.36,56.5,86.95,58.8c20.39,3.23,38.22,7.47,38.22,8.68s-17.89,5.44-38.28,8.69c-4.35-12.66-8.42-3.85-10.72,10.74-3.22,20.39-7.46,38.21-8.68,38.21s-5.43-17.89-8.69-38.28c12.66-4.35,3.85-8.42-10.74-10.72-3.51-.55-7-1.14-10.24-1.74-.14-2.25-.22-4.53-.22-6.85S37.68,62.83,37.83,60.52Zm-28,6.93c0-.85,8.82-3.18,21.11-5.62-.1,1.87-.15,3.75-.15,5.67s0,3.74.14,5.58C18.64,70.65,9.84,68.3,9.84,67.45Z" transform="translate(-9.84 -2.24)" style="fill:#fff"/><polygon points="52 70.9 56.33 63.9 63.34 59.57 59.01 66.58 52 70.9" style="fill:#fff"/><path d="M79,49.35c7.41-4.69,11.12-5.55,11.62-5.08s-.1,2.69-2.46,7.14A73.15,73.15,0,0,1,79,49.35ZM49.46,56.58a53.36,53.36,0,0,0,2.48-9.4c-5-2.77-7.58-3.3-8-2.93S44.41,48.7,49.46,56.58ZM43.94,90.9c.49.51,4.47-.45,12.34-5.52a50.38,50.38,0,0,0-9.35-2.55C44.09,87.89,43.55,90.52,43.94,90.9Zm46.64,0c.49-.48-.39-4.21-5.07-11.63a76.66,76.66,0,0,0-2,9.18C87.91,90.84,90.23,91.29,90.58,90.92Z" transform="translate(-9.84 -2.24)" style="fill:#fff"/><path d="M96.3,111.67c-7.37,13-18,21.09-29.7,21.09-22.28,0-40.35-29.22-40.35-65.26S44.31,2.24,66.59,2.24c11.74,0,22.33,8.12,29.7,21.09C89.42,12.48,80,5.79,69.64,5.79,48.58,5.79,31.5,33.41,31.5,67.5s17.08,61.71,38.15,61.71C80,129.21,89.42,122.52,96.3,111.67Z" transform="translate(-9.84 -2.24)" style="fill:#fff"/></svg>